<svg width="40" height="11" viewBox="0 0 40 11" fill="none" xmlns="http://www.w3.org/2000/svg">
<path d="M5.36514 10.9053C8.20584 10.9053 10.5086 8.5278 10.5086 5.595C10.5086 2.6622 8.20584 0.284668 5.36514 0.284668C2.52448 0.284668 0.22168 2.6622 0.22168 5.595C0.22168 8.5278 2.52448 10.9053 5.36514 10.9053Z" fill="white"/>
<path d="M14.0376 2.367C14.0376 1.8466 13.7745 1.8809 13.5225 1.8752V1.7251C13.7405 1.7357 13.9649 1.7357 14.1837 1.7357C14.4191 1.7357 14.7383 1.7251 15.153 1.7251C16.6042 1.7251 17.3941 2.725 17.3941 3.7494C17.3941 4.322 17.0695 5.7631 15.0859 5.7631C14.8007 5.7631 14.536 5.7517 14.2738 5.7517C14.0218 5.7517 13.7745 5.7574 13.5225 5.7631V5.6122C13.8583 5.5772 14.021 5.5657 14.0376 5.1726V2.367ZM14.5866 5.0805C14.5866 5.5266 14.8955 5.578 15.1696 5.578C16.3806 5.578 16.778 4.6351 16.778 3.7731C16.778 2.6916 16.1057 1.9102 15.0242 1.9102C14.7944 1.9102 14.6885 1.9265 14.5874 1.9331L14.5866 5.0805Z" fill="black"/>
<path d="M17.5898 5.61224H17.6964C17.8536 5.61224 17.965 5.61224 17.965 5.42054V3.85384C17.965 3.59934 17.8813 3.56424 17.6735 3.44924V3.35635C17.9373 3.27475 18.251 3.16624 18.2731 3.14754C18.3126 3.12464 18.3458 3.11895 18.3742 3.11895C18.4018 3.11895 18.4129 3.15325 18.4129 3.19975V5.42054C18.4129 5.61224 18.5369 5.61224 18.6933 5.61224H18.7881V5.76314C18.5978 5.76314 18.4018 5.75175 18.2004 5.75175C17.999 5.75175 17.7967 5.75744 17.5898 5.76314V5.61224ZM18.1901 2.22834C18.044 2.22834 17.9152 2.08964 17.9152 1.93884C17.9152 1.79364 18.0495 1.66064 18.1901 1.66064C18.3355 1.66064 18.465 1.78224 18.465 1.93884C18.4642 2.09544 18.341 2.22834 18.1901 2.22834Z" fill="black"/>
<path d="M19.3212 3.88793C19.3212 3.67423 19.2596 3.61633 18.9965 3.50703V3.39693C19.2375 3.31623 19.4665 3.24033 19.7359 3.11963C19.7525 3.11963 19.7691 3.13103 19.7691 3.17673V3.55353C20.089 3.31623 20.3639 3.11963 20.7392 3.11963C21.2155 3.11963 21.3838 3.47773 21.3838 3.92953V5.42043C21.3838 5.61213 21.5078 5.61213 21.6642 5.61213H21.7653V5.76303C21.5686 5.76303 21.3727 5.75163 21.1721 5.75163C20.9698 5.75163 20.7684 5.75733 20.5662 5.76303V5.61213H20.6673C20.8245 5.61213 20.9359 5.61213 20.9359 5.42043V3.92303C20.9359 3.59273 20.74 3.43123 20.4208 3.43123C20.2415 3.43123 19.9563 3.58133 19.7707 3.70933V5.42043C19.7707 5.61213 19.8947 5.61213 20.0519 5.61213H20.153V5.76303C19.9571 5.76303 19.7604 5.75163 19.5582 5.75163C19.3567 5.75163 19.1553 5.75733 18.9531 5.76303V5.61213H19.055C19.2114 5.61213 19.3236 5.61213 19.3236 5.42043V3.88793H19.3212Z" fill="black"/>
<path d="M22.1928 4.16599C22.1809 4.21819 22.1809 4.30469 22.1928 4.50129C22.2251 5.05099 22.568 5.50199 23.0159 5.50199C23.324 5.50199 23.5657 5.32829 23.7727 5.11379L23.8509 5.19449C23.5926 5.54769 23.2742 5.84779 22.8145 5.84779C21.9234 5.84779 21.7441 4.95719 21.7441 4.58689C21.7441 3.45319 22.4835 3.11719 22.8753 3.11719C23.3295 3.11719 23.8177 3.41159 23.8224 4.02489C23.8224 4.05999 23.8224 4.09509 23.8177 4.12929L23.7664 4.16439H22.1928V4.16599ZM23.1842 3.98089C23.324 3.98089 23.3398 3.90589 23.3398 3.83649C23.3398 3.54129 23.166 3.30399 22.8524 3.30399C22.5111 3.30399 22.2757 3.56409 22.2086 3.98089H23.1842Z" fill="black"/>
<path d="M23.9497 5.61244H24.1014C24.2578 5.61244 24.3692 5.61244 24.3692 5.42084V3.79614C24.3692 3.61674 24.1622 3.58244 24.0785 3.53514V3.44954C24.4877 3.27004 24.712 3.11914 24.7626 3.11914C24.7958 3.11914 24.8124 3.13554 24.8124 3.19424V3.71454H24.8242C24.964 3.48944 25.1995 3.11914 25.5407 3.11914C25.6805 3.11914 25.8599 3.21704 25.8599 3.42584C25.8599 3.58164 25.754 3.72114 25.5968 3.72114C25.423 3.72114 25.423 3.58164 25.2271 3.58164C25.1323 3.58164 24.8179 3.71454 24.8179 4.06204V5.42084C24.8179 5.61244 24.9293 5.61244 25.0865 5.61244H25.4001V5.76334C25.092 5.75764 24.8574 5.75194 24.6157 5.75194C24.3858 5.75194 24.1504 5.75764 23.9482 5.76334V5.61244H23.9497Z" fill="black"/>
<path d="M26.107 4.95914C26.1804 5.34084 26.4048 5.66544 26.814 5.66544C27.1442 5.66544 27.2666 5.45664 27.2666 5.25444C27.2666 4.57174 26.0461 4.79114 26.0461 3.85974C26.0461 3.53514 26.2989 3.11914 26.9151 3.11914C27.0944 3.11914 27.3346 3.17134 27.5534 3.28634L27.5929 3.87684H27.4641C27.408 3.51234 27.2121 3.30434 26.8527 3.30434C26.6284 3.30434 26.4159 3.43804 26.4159 3.68604C26.4159 4.36374 27.7153 4.15494 27.7153 5.06274C27.7153 5.44444 27.4183 5.84984 26.7516 5.84984C26.5264 5.84984 26.2634 5.76904 26.0675 5.65404L26.0059 4.98854L26.107 4.95914Z" fill="black"/>
<path d="M32.7745 2.77147H32.6346C32.528 2.09537 32.0627 1.82297 31.4363 1.82297C30.7909 1.82297 29.8548 2.26827 29.8548 3.65647C29.8548 4.82597 30.6629 5.66527 31.5247 5.66527C32.0793 5.66527 32.5391 5.27207 32.6512 4.66447L32.7792 4.69877L32.6512 5.54367C32.4158 5.69457 31.7823 5.85037 31.4118 5.85037C30.1012 5.85037 29.2725 4.97687 29.2725 3.67517C29.2725 2.48927 30.2971 1.63867 31.396 1.63867C31.8502 1.63867 32.2863 1.78957 32.7184 1.94527L32.7745 2.77147Z" fill="black"/>
<path d="M32.9756 5.61189H33.0822C33.2394 5.61189 33.3516 5.61188 33.3516 5.42028V2.19948C33.3516 1.82268 33.2671 1.81128 33.0546 1.74758V1.65469C33.2782 1.57959 33.5136 1.47598 33.6321 1.40588C33.6937 1.37158 33.7387 1.34229 33.7553 1.34229C33.7893 1.34229 33.8003 1.37739 33.8003 1.42379V5.42028C33.8003 5.61188 33.9243 5.61189 34.0808 5.61189H34.1756V5.76278C33.986 5.76278 33.7893 5.75138 33.587 5.75138C33.3856 5.75138 33.1841 5.75708 32.9756 5.76278V5.61189Z" fill="black"/>
<path d="M36.5761 5.4437C36.5761 5.5481 36.6369 5.5538 36.7325 5.5538C36.7996 5.5538 36.8841 5.5481 36.9568 5.5481V5.6696C36.7151 5.6925 36.2561 5.814 36.1487 5.8483L36.121 5.8311V5.363C35.7853 5.646 35.527 5.8483 35.1288 5.8483C34.8263 5.8483 34.5135 5.646 34.5135 5.1607V3.6788C34.5135 3.5279 34.4905 3.3835 34.1777 3.355V3.2449C34.38 3.2384 34.8271 3.2049 34.9005 3.2049C34.9629 3.2049 34.9629 3.2449 34.9629 3.3721V4.8647C34.9629 5.0376 34.9629 5.5359 35.4504 5.5359C35.6399 5.5359 35.8927 5.385 36.1274 5.1836V3.6266C36.1274 3.5116 35.8588 3.448 35.6573 3.3892V3.2848C36.1613 3.2498 36.4757 3.2041 36.531 3.2041C36.5761 3.2041 36.5761 3.2441 36.5761 3.3085V5.4437Z" fill="black"/>
<path d="M37.6882 3.53482C37.9125 3.33902 38.2159 3.11882 38.5232 3.11882C39.1733 3.11882 39.5651 3.70362 39.5651 4.33322C39.5651 5.09092 39.0272 5.84862 38.2253 5.84862C37.8106 5.84862 37.5934 5.71002 37.4472 5.64632L37.279 5.77852L37.162 5.71492C37.211 5.37392 37.2395 5.03712 37.2395 4.68482V2.19802C37.2395 1.82122 37.1557 1.80982 36.9424 1.74622V1.65322C37.1676 1.57822 37.4014 1.47462 37.5199 1.40442C37.5807 1.37022 37.6265 1.34082 37.6439 1.34082C37.6771 1.34082 37.6882 1.37592 37.6882 1.42242V3.53482ZM37.6882 5.10892C37.6882 5.32912 37.8896 5.69942 38.2656 5.69942C38.8652 5.69942 39.1172 5.09172 39.1172 4.57632C39.1172 3.95152 38.6575 3.43122 38.2206 3.43122C38.0121 3.43122 37.8391 3.56982 37.6874 3.70362L37.6882 5.10892Z" fill="black"/>
<path d="M13.5117 9.12645H13.5543C13.6641 9.12645 13.7803 9.11175 13.7803 8.94695V7.29785C13.7803 7.13395 13.6641 7.11845 13.5543 7.11845H13.5117V7.02295C13.631 7.02295 13.8134 7.03605 13.9635 7.03605C14.116 7.03605 14.2985 7.02295 14.4415 7.02295V7.11845H14.3988C14.289 7.11845 14.1729 7.13315 14.1729 7.29785V8.94695C14.1729 9.11095 14.289 9.12645 14.3988 9.12645H14.4415V9.22105C14.2953 9.22105 14.112 9.20875 13.9596 9.20875C13.8103 9.20875 13.6302 9.22105 13.5117 9.22105V9.12645Z" fill="black"/>
<path d="M14.4452 9.23494C14.2982 9.23494 14.115 9.22264 13.9633 9.22264C13.814 9.22264 13.6347 9.23494 13.5154 9.23494H13.502V9.22184V9.12724V9.11424H13.5154H13.558C13.6686 9.11174 13.7698 9.10194 13.7705 8.94784V7.29864C13.7698 7.14454 13.6686 7.13474 13.558 7.13234H13.502V7.11924V7.01074H13.5154C13.6347 7.01074 13.8179 7.02304 13.9672 7.02304C14.1189 7.02304 14.3014 7.01074 14.4452 7.01074H14.4586V7.02464V7.13234H14.4452H14.4025C14.2919 7.13474 14.19 7.14454 14.19 7.29864V8.94784C14.1908 9.10194 14.2919 9.11174 14.4025 9.11424H14.4586V9.12724V9.23494H14.4452ZM14.4317 9.20804V9.14114H14.4025C14.2935 9.14114 14.1639 9.12154 14.1632 8.94784V7.29864C14.1639 7.12494 14.2935 7.10544 14.4025 7.10544H14.4317V7.03854C14.2911 7.03854 14.1142 7.05074 13.9665 7.05074C13.8219 7.05074 13.6465 7.03934 13.528 7.03854V7.10544H13.5573C13.6655 7.10544 13.7958 7.12494 13.7958 7.29864V8.94784C13.7958 9.12154 13.6655 9.14114 13.5573 9.14114H13.528V9.20804C13.6457 9.20634 13.8187 9.19494 13.9633 9.19494C14.1118 9.19494 14.288 9.20634 14.4317 9.20804Z" fill="black"/>
<path d="M16.5406 8.60084L16.5469 8.59434V7.41414C16.5469 7.15644 16.3731 7.11894 16.2815 7.11894H16.2151V7.02344C16.3581 7.02344 16.4987 7.03654 16.6417 7.03654C16.7665 7.03654 16.8921 7.02344 17.0161 7.02344V7.11894H16.9711C16.8431 7.11894 16.6994 7.14334 16.6994 7.51774V8.95074C16.6994 9.06084 16.7033 9.17094 16.7175 9.26804H16.6014L15.0317 7.46144V8.75824C15.0317 9.03314 15.0831 9.12604 15.3177 9.12604H15.3698V9.22074C15.2387 9.22074 15.1076 9.20844 14.9764 9.20844C14.8406 9.20844 14.6992 9.22074 14.5625 9.22074V9.12604H14.6052C14.8153 9.12604 14.8801 8.97924 14.8801 8.72724V7.40194C14.8801 7.22574 14.7395 7.11894 14.6028 7.11894H14.5633V7.02344C14.6786 7.02344 14.7979 7.03654 14.9132 7.03654C15.0049 7.03654 15.0934 7.02344 15.185 7.02344L16.5406 8.60084Z" fill="black"/>
<path d="M16.7171 9.28197L16.5915 9.27707L15.044 7.49667V8.75757C15.0479 9.03157 15.0882 9.10987 15.3173 9.11237H15.3829V9.12537V9.23387H15.3694C15.2375 9.23387 15.1064 9.22167 14.976 9.22167C14.8402 9.22167 14.7003 9.23387 14.5613 9.23387H14.5479V9.22077V9.11316H14.5613H14.6047C14.8062 9.11156 14.8638 8.97777 14.8662 8.72657V7.40127C14.8654 7.23407 14.7319 7.13207 14.6016 7.13127H14.5479V7.11736V7.00977H14.5613C14.6782 7.00977 14.7967 7.02197 14.912 7.02197C15.0029 7.02197 15.0906 7.00977 15.1941 7.01467L16.5338 8.57157V7.41427C16.5323 7.16387 16.3703 7.13367 16.281 7.13127H16.2005V7.11736V7.00977H16.2139C16.3577 7.00977 16.4983 7.02197 16.6405 7.02197C16.7645 7.02197 16.8893 7.00977 17.0149 7.00977H17.0291V7.02277V7.13127H17.0149H16.9699C16.8435 7.13537 16.7147 7.14677 16.7116 7.51787V8.95086C16.7116 9.06016 16.7147 9.17027 16.7297 9.26647L16.7321 9.28277L16.7171 9.28197ZM16.601 9.25426H16.7021C16.6879 9.15966 16.6863 9.05446 16.6863 8.95086V7.51787C16.6863 7.14027 16.8396 7.10517 16.9707 7.10517H17.0031V7.03827C16.8822 7.03907 16.7621 7.05047 16.6413 7.05047C16.5014 7.05047 16.3656 7.03907 16.2273 7.03827V7.10517H16.281C16.3751 7.10517 16.5599 7.14837 16.5599 7.41507L16.556 8.60507L16.5496 8.61077L16.5394 8.62057L15.1838 7.03827C15.0929 7.03827 15.0045 7.05047 14.912 7.05047C14.8007 7.05047 14.6853 7.03907 14.5755 7.03827L14.5747 7.10517H14.6016C14.7446 7.10517 14.8923 7.21767 14.8923 7.40207V8.72737C14.8923 8.97937 14.8244 9.14007 14.6047 9.14087L14.5755 9.14007V9.20856C14.7074 9.20696 14.8433 9.19557 14.976 9.19557C15.104 9.19557 15.2304 9.20696 15.356 9.20856V9.14167H15.3173C15.0771 9.14087 15.0179 9.03326 15.0179 8.75916V7.42737L16.601 9.25426Z" fill="black"/>
<path d="M17.4729 7.18108C17.2439 7.18108 17.236 7.23818 17.1893 7.46728H17.0977C17.1104 7.37928 17.1254 7.29118 17.1348 7.19978C17.1467 7.11168 17.153 7.02368 17.153 6.93228H17.2265C17.251 7.02688 17.3268 7.02278 17.4097 7.02278H18.9826C19.0647 7.02278 19.1414 7.02038 19.1477 6.92578L19.2203 6.93878C19.2093 7.02278 19.1966 7.10848 19.1872 7.19328C19.1809 7.27808 19.1808 7.36288 19.1808 7.44778L19.09 7.48278C19.0837 7.36618 19.0687 7.17938 18.8641 7.17938H18.364V8.85468C18.364 9.09768 18.4707 9.12458 18.6168 9.12458H18.6745V9.21918C18.556 9.21918 18.3419 9.20698 18.1776 9.20698C17.9951 9.20698 17.781 9.21918 17.6617 9.21918V9.12458H17.7194C17.8877 9.12458 17.9722 9.10988 17.9722 8.86118V7.17938H17.4729V7.18108Z" fill="black"/>
<path d="M18.6743 9.23514C18.5542 9.23514 18.3409 9.22295 18.1766 9.22295C17.9941 9.22295 17.7808 9.23514 17.6607 9.23514H17.6481V9.22204V9.11445H17.6607H17.7184C17.8867 9.11035 17.9546 9.10795 17.9578 8.86405V7.19534H17.4712V7.18224V7.16925H17.9846V8.86405C17.9846 9.11605 17.8859 9.14214 17.7184 9.14214H17.6734V9.20904C17.7942 9.20824 17.9989 9.19685 18.1758 9.19685C18.3346 9.19685 18.5384 9.20824 18.6593 9.20904V9.14214H18.615C18.4673 9.14214 18.348 9.10544 18.348 8.85754V7.16925H18.8615C19.0661 7.17005 19.093 7.34865 19.0993 7.46615L19.1656 7.44084C19.1656 7.35924 19.1664 7.27685 19.1712 7.19375C19.1798 7.11295 19.1909 7.03304 19.2028 6.95224L19.1562 6.94415C19.1411 7.03545 19.0558 7.04034 18.9792 7.03954H17.4064C17.4001 7.03954 17.3953 7.03954 17.3906 7.03954C17.3187 7.03954 17.2405 7.03545 17.2136 6.94825H17.1631C17.1631 7.03545 17.1567 7.11944 17.1449 7.20344C17.1362 7.28994 17.1228 7.37314 17.1109 7.45554H17.1757C17.216 7.23694 17.2421 7.16515 17.4696 7.16925V7.18224V7.19534C17.2444 7.20024 17.2492 7.23854 17.1994 7.47184L17.1978 7.48245H17.1868H17.0801L17.0825 7.46615C17.0943 7.37805 17.1101 7.28994 17.1196 7.19854C17.1323 7.11134 17.1378 7.02405 17.1378 6.93355V6.91964H17.1504H17.2342L17.2365 6.92945C17.2579 7.00855 17.3132 7.00934 17.3914 7.01104C17.3969 7.01104 17.4008 7.01104 17.4072 7.01104H18.98C19.0645 7.00934 19.1269 7.00774 19.1317 6.92534L19.1325 6.91064L19.1459 6.91315L19.232 6.92704L19.2304 6.94004C19.2186 7.02484 19.2067 7.10965 19.198 7.19375C19.1917 7.27775 19.1917 7.36334 19.1917 7.44814V7.45794L19.183 7.46204L19.0748 7.50284L19.074 7.48404C19.0653 7.36574 19.0535 7.19454 18.8607 7.19454H18.3741V8.85585C18.3772 9.09325 18.4689 9.11034 18.6142 9.11364H18.6845V9.12665V9.23514H18.6743Z" fill="black"/>
<path d="M19.3164 9.12645H19.3591C19.4689 9.12645 19.5842 9.11175 19.5842 8.94695V7.29785C19.5842 7.13395 19.4689 7.11845 19.3591 7.11845H19.3164V7.02295C19.5013 7.02295 19.8196 7.03605 20.0756 7.03605C20.3323 7.03605 20.6483 7.02295 20.8553 7.02295C20.8505 7.15835 20.8529 7.36715 20.8624 7.50505L20.7699 7.53025C20.7557 7.32555 20.7186 7.16245 20.3987 7.16245H19.976V7.98625H20.3378C20.5211 7.98625 20.5614 7.88015 20.5788 7.70975H20.6696C20.6641 7.83285 20.6609 7.95525 20.6609 8.07755C20.6609 8.19745 20.6641 8.31655 20.6696 8.43645L20.5788 8.45515C20.5614 8.26595 20.5519 8.14365 20.341 8.14365H19.976V8.87685C19.976 9.08155 20.1522 9.08155 20.3473 9.08155C20.7139 9.08155 20.875 9.05625 20.9659 8.69745L21.0512 8.71945C21.0117 8.88665 20.9753 9.05225 20.9477 9.22025C20.7526 9.22025 20.4018 9.20795 20.1269 9.20795C19.8528 9.20795 19.4902 9.22025 19.3164 9.22025V9.12645Z" fill="black"/>
<path d="M20.9474 9.23494C20.7515 9.23494 20.4008 9.22184 20.1267 9.22184C19.8525 9.22184 19.4899 9.23494 19.3162 9.23494H19.3027V9.22184V9.12724V9.11424H19.3162H19.3588C19.4686 9.11174 19.5697 9.10194 19.5705 8.94784V7.29864C19.5697 7.14534 19.4686 7.13474 19.3588 7.13234H19.3027V7.11924V7.01074H19.3162C19.5018 7.01074 19.8194 7.02304 20.0753 7.02304C20.3313 7.02304 20.648 7.01074 20.855 7.01074H20.8684V7.02464C20.8661 7.07194 20.8645 7.12744 20.8645 7.18774C20.8645 7.29624 20.8684 7.41534 20.874 7.50504V7.51644L20.8645 7.51974L20.7578 7.54904L20.757 7.53274C20.7389 7.32884 20.7128 7.18044 20.3984 7.17794H19.9876V7.97484H20.3376C20.5137 7.97404 20.5445 7.88024 20.5651 7.71054L20.5659 7.69834H20.5777H20.6836V7.71224C20.6773 7.83534 20.6741 7.95764 20.6741 8.08004C20.6741 8.19914 20.6781 8.31904 20.6836 8.43884V8.44954L20.6725 8.45194L20.5659 8.47314L20.5651 8.45844C20.5438 8.26594 20.543 8.16154 20.3407 8.15834L19.9876 8.15754V8.87764C19.9884 9.06934 20.148 9.06854 20.3471 9.06934C20.7144 9.06694 20.8613 9.04814 20.953 8.69494L20.9561 8.68194L20.9688 8.68434L21.0667 8.71044L21.0636 8.72354C21.0241 8.88994 20.9877 9.05634 20.9601 9.22264L20.9577 9.23414L20.9474 9.23494ZM20.9364 9.20714C20.9624 9.04814 20.9972 8.88914 21.0351 8.73084L20.9743 8.71534C20.8834 9.06774 20.7065 9.09874 20.3463 9.09624C20.1535 9.09624 19.9616 9.09624 19.9608 8.87764V8.13064H20.3399C20.5532 8.12814 20.5746 8.26104 20.5896 8.44054L20.6559 8.42664C20.6504 8.31084 20.6472 8.19424 20.6472 8.07844C20.6472 7.96014 20.6504 7.84264 20.6559 7.72364H20.5896C20.573 7.88834 20.5232 8.00334 20.3368 8.00094H19.9608V7.14864H20.3984C20.7152 7.14694 20.7681 7.31584 20.7815 7.51314L20.8479 7.49524C20.8424 7.40634 20.8392 7.29294 20.8392 7.18774C20.8392 7.13314 20.84 7.08254 20.8416 7.03774C20.6346 7.03854 20.3257 7.04994 20.0745 7.04994C19.8241 7.04994 19.5152 7.03854 19.3288 7.03774V7.10454H19.3588C19.467 7.10454 19.5974 7.12414 19.5982 7.29784V8.94704C19.5974 9.12074 19.4678 9.13944 19.3588 9.14034H19.3288V9.20714C19.5057 9.20634 19.8589 9.19494 20.1267 9.19494C20.396 9.19494 20.7397 9.20634 20.9364 9.20714Z" fill="black"/>
<path d="M21.4592 7.35735C21.4592 7.12735 21.3368 7.11845 21.2428 7.11845H21.1875V7.02295C21.2854 7.02295 21.4742 7.03605 21.6606 7.03605C21.8431 7.03605 21.9893 7.02295 22.152 7.02295C22.5351 7.02295 22.8772 7.13065 22.8772 7.57765C22.8772 7.86065 22.6947 8.03355 22.4538 8.13225L22.9751 8.93725C23.0605 9.07095 23.1205 9.10765 23.2706 9.12645V9.22105C23.1703 9.22105 23.0723 9.20875 22.972 9.20875C22.8772 9.20875 22.7792 9.22105 22.6852 9.22105C22.4506 8.90375 22.2492 8.56365 22.0509 8.20075H21.8502V8.87445C21.8502 9.11745 21.9593 9.12565 22.0999 9.12565H22.1552V9.22025C21.9806 9.22025 21.8036 9.20795 21.6298 9.20795C21.4837 9.20795 21.3407 9.22025 21.1875 9.22025V9.12565H21.2428C21.3549 9.12565 21.4592 9.07345 21.4592 8.95595V7.35735ZM21.8494 8.08735H21.998C22.3029 8.08735 22.4672 7.96825 22.4672 7.59635C22.4672 7.31665 22.2934 7.13635 22.0217 7.13635C21.93 7.13635 21.8905 7.14615 21.8487 7.14945L21.8494 8.08735Z" fill="black"/>
<path d="M23.2716 9.23502C23.1697 9.23502 23.0725 9.22282 22.9722 9.22282C22.8798 9.22282 22.7818 9.23502 22.6752 9.23012C22.4421 8.91292 22.2415 8.57522 22.044 8.21552H21.8639V8.87542C21.867 9.11272 21.9595 9.11022 22.1001 9.11432H22.168V9.12742V9.23582H22.1546C21.98 9.23582 21.8031 9.22362 21.6301 9.22362C21.4839 9.22362 21.3417 9.23582 21.1885 9.23582H21.1758V9.22282V9.11512H21.1885H21.2438C21.3536 9.11432 21.4452 9.06462 21.4468 8.95852V7.35922C21.4444 7.13572 21.3386 7.13652 21.2438 7.13322H21.1758V7.12022V7.01172H21.1885C21.288 7.01172 21.476 7.02402 21.6617 7.02402C21.8433 7.02402 21.9903 7.01172 22.153 7.01172C22.5369 7.01172 22.8908 7.12262 22.8916 7.57862C22.8916 7.86322 22.7091 8.04022 22.4745 8.13892L22.9864 8.93082C23.0717 9.06212 23.1247 9.09472 23.2724 9.11432L23.2835 9.11512V9.12662V9.23502H23.2716ZM21.8505 8.18782H22.059L22.063 8.19512C22.2612 8.55732 22.4619 8.89662 22.6862 9.20812C22.7795 9.20812 22.8774 9.19512 22.9722 9.19512C23.0694 9.19512 23.1642 9.20572 23.2582 9.20732V9.13802C23.1152 9.12002 23.048 9.07602 22.9651 8.94552L22.4342 8.12582L22.45 8.11932C22.6886 8.02222 22.8648 7.85422 22.8656 7.57772C22.8648 7.14142 22.5361 7.03942 22.1538 7.03782C21.9926 7.03782 21.8457 7.05012 21.6624 7.05012C21.4823 7.05012 21.3022 7.03862 21.2027 7.03782V7.10472H21.2446C21.3393 7.10472 21.4736 7.12102 21.4736 7.35752V8.95692C21.4736 9.08332 21.3599 9.14122 21.2446 9.14122H21.2027V9.20812C21.3496 9.20732 21.4879 9.19592 21.6308 9.19592C21.8015 9.19592 21.9737 9.20732 22.1427 9.20812V9.14122H22.1009C21.9618 9.14122 21.8378 9.12332 21.8378 8.87542V8.18782H21.8505ZM21.8505 8.10142H21.837V7.13732L21.8489 7.13652C21.8907 7.13242 21.9318 7.12512 22.0242 7.12512C22.3015 7.12512 22.4824 7.31102 22.4832 7.59812C22.4824 7.97332 22.3078 8.10222 22.0005 8.10222L21.8505 8.10142ZM21.9998 8.07442C22.3015 8.07122 22.454 7.96352 22.4564 7.59732C22.4548 7.32252 22.2889 7.15202 22.0235 7.15042C21.9405 7.15042 21.9026 7.15772 21.8631 7.16182V8.07362L21.9998 8.07442Z" fill="black"/>
<path d="M25.342 8.60133L25.3475 8.59483V7.41463C25.3475 7.15693 25.1737 7.11943 25.0829 7.11943H25.0157V7.02393C25.1595 7.02393 25.2986 7.03703 25.4431 7.03703C25.5687 7.03703 25.6927 7.02393 25.8183 7.02393V7.11943H25.7725C25.6446 7.11943 25.5008 7.14383 25.5008 7.51823V8.95123C25.5008 9.06133 25.5032 9.17143 25.5182 9.26843H25.4028L23.8324 7.46193V8.75873C23.8324 9.03363 23.8845 9.12653 24.1191 9.12653H24.1713V9.22113C24.0401 9.22113 23.9082 9.20893 23.7771 9.20893C23.6396 9.20893 23.4998 9.22113 23.3623 9.22113V9.12653H23.4042C23.6151 9.12653 23.6791 8.97973 23.6791 8.72773V7.40243C23.6791 7.22623 23.5385 7.11943 23.4018 7.11943H23.3623V7.02393C23.4777 7.02393 23.5978 7.03703 23.7131 7.03703C23.8039 7.03703 23.8924 7.02393 23.9841 7.02393L25.342 8.60133Z" fill="black"/>
<path d="M25.5187 9.28228L25.393 9.27738L23.8455 7.49698V8.75788C23.8495 9.03278 23.8897 9.11028 24.1196 9.11268H24.1844V9.12568V9.23418H24.171C24.039 9.23418 23.9079 9.22118 23.7776 9.22118C23.6409 9.22118 23.5003 9.23418 23.3628 9.23418H23.3486V9.22118V9.11348H23.3628H23.4047C23.6061 9.11268 23.6638 8.97808 23.6662 8.72688V7.40158C23.6654 7.23358 23.5335 7.13238 23.4023 7.13158H23.3486V7.11858V7.01008H23.3628C23.479 7.01008 23.5982 7.02228 23.7136 7.02228C23.8036 7.02228 23.8913 7.01008 23.994 7.01338L25.3346 8.57108V7.41378C25.3346 7.16338 25.1711 7.13238 25.0826 7.13078H25.002V7.11778V7.00928H25.0154C25.16 7.00928 25.2998 7.02148 25.4428 7.02148C25.5668 7.02148 25.6924 7.00928 25.818 7.00928H25.8315V7.02308V7.13078H25.818H25.773C25.6474 7.13408 25.5171 7.14628 25.5139 7.51738V8.95038C25.5139 9.05968 25.5163 9.16898 25.5321 9.26598L25.5337 9.28228H25.5187ZM25.4033 9.25458H25.5029C25.4902 9.16078 25.4871 9.05478 25.4871 8.95118V7.51818C25.4871 7.14058 25.6411 7.10548 25.7722 7.10548H25.8038V7.03858C25.6838 7.03948 25.5629 7.05088 25.442 7.05088C25.3022 7.05088 25.1655 7.03948 25.0281 7.03858V7.10548H25.0818C25.1758 7.10628 25.3607 7.14868 25.3607 7.41538L25.3567 8.60538L25.3512 8.61108L25.3417 8.62168L23.9853 7.03858C23.8945 7.03858 23.806 7.05088 23.7144 7.05088C23.6014 7.05088 23.4877 7.03948 23.3763 7.03858V7.10548H23.4031C23.5461 7.10628 23.693 7.21728 23.693 7.40238V8.72768C23.693 8.98058 23.6243 9.14038 23.4055 9.14208H23.3763V9.20888C23.5082 9.20808 23.6441 9.19668 23.7776 9.19668C23.9048 9.19668 24.0319 9.20808 24.1575 9.20888V9.14208H24.1188C23.8787 9.14208 23.8186 9.03438 23.8179 8.75948V7.42768L25.4033 9.25458Z" fill="black"/>
<path d="M26.3089 8.7711C26.2781 8.8779 26.241 8.9603 26.241 9.0166C26.241 9.1112 26.3698 9.1267 26.4701 9.1267H26.504V9.2213C26.3816 9.2148 26.2568 9.2091 26.1343 9.2091C26.0245 9.2091 25.9147 9.2148 25.8057 9.2213V9.1267H25.8239C25.9432 9.1267 26.0443 9.0541 26.0885 8.922L26.5767 7.4776C26.6162 7.3609 26.6715 7.2035 26.6897 7.0869C26.7876 7.0526 26.9093 6.9898 26.9678 6.9515C26.9772 6.9482 26.982 6.9458 26.9922 6.9458C27.0009 6.9458 27.0073 6.9458 27.0136 6.9548C27.0223 6.9801 27.0317 7.0086 27.0412 7.0339L27.6021 8.6806C27.6384 8.7907 27.6748 8.9073 27.7143 9.0019C27.7514 9.09 27.8154 9.1267 27.9157 9.1267H27.9339V9.2213C27.7972 9.2148 27.6598 9.2091 27.5136 9.2091C27.3643 9.2091 27.2119 9.2148 27.057 9.2213V9.1267H27.0902C27.1597 9.1267 27.279 9.1153 27.279 9.0362C27.279 8.9946 27.2521 8.9098 27.2174 8.8094L27.0989 8.4441H26.4069L26.3089 8.7711ZM26.7537 7.3764H26.7474L26.4638 8.2679H27.0341L26.7537 7.3764Z" fill="black"/>
<path d="M27.9321 9.23523C27.7954 9.22943 27.6587 9.22213 27.5126 9.22213C27.3633 9.22213 27.2116 9.22943 27.056 9.23523L27.0425 9.23603V9.22133V9.11283H27.056H27.0892C27.1595 9.11283 27.2637 9.09653 27.2637 9.03623C27.2645 9.00033 27.2377 8.91383 27.2037 8.81433L27.0876 8.45793H26.4145L26.3197 8.77523C26.2889 8.88283 26.2526 8.96603 26.2526 9.01743C26.2534 9.09413 26.3679 9.11283 26.469 9.11283H26.5156V9.12753V9.23683L26.5022 9.23603C26.3798 9.23033 26.2557 9.22293 26.1341 9.22293C26.0251 9.22293 25.9145 9.23033 25.8055 9.23603L25.792 9.23683V9.22213V9.11363H25.8047H25.8228C25.9366 9.11363 26.0306 9.04683 26.0748 8.91873L26.5638 7.47433C26.6041 7.35773 26.6586 7.20113 26.6847 7.07553C26.7803 7.04123 26.9027 6.97763 26.962 6.94013C26.9707 6.93683 26.9786 6.93273 26.9912 6.93273C26.9983 6.93193 27.0157 6.93523 27.0244 6.95153C27.0339 6.97763 27.0433 7.00533 27.052 7.03063L27.6137 8.67733C27.6492 8.78743 27.6856 8.90403 27.7251 8.99623C27.7606 9.08023 27.8167 9.11363 27.9147 9.11363H27.9463V9.12833V9.23763L27.9321 9.23523ZM27.0686 9.20663C27.2187 9.20173 27.3672 9.19523 27.5126 9.19523C27.6548 9.19523 27.7867 9.20173 27.9194 9.20663V9.14143H27.9147C27.8104 9.14223 27.7385 9.09983 27.7006 9.00763C27.6611 8.91223 27.624 8.79563 27.5884 8.68543L27.0268 7.03883C27.0173 7.01353 27.0086 6.98493 27.0007 6.96293C26.9975 6.95963 26.9983 6.95963 26.9959 6.95963H26.9904C26.9841 6.95963 26.9809 6.96213 26.973 6.96373C26.9138 7.00293 26.7913 7.06493 26.7013 7.09013C26.6831 7.21003 26.6278 7.36663 26.5883 7.48243L26.1009 8.92773C26.0543 9.06473 25.9477 9.14143 25.8228 9.14143H25.8181V9.20663C25.9224 9.20173 26.0282 9.19523 26.1341 9.19523C26.2518 9.19523 26.3727 9.20173 26.4888 9.20663V9.14143H26.4698C26.3703 9.14053 26.2313 9.12913 26.2281 9.01743C26.2281 8.95463 26.2652 8.87383 26.2952 8.76783L26.3956 8.43183H27.1057L27.2282 8.80533C27.263 8.90653 27.2906 8.99053 27.2906 9.03623C27.2859 9.13243 27.1579 9.13973 27.0892 9.14143H27.0686V9.20663ZM26.4445 8.28173L26.7368 7.36343H26.7471H26.7534H26.7629L27.052 8.28173H26.4445ZM26.4817 8.25403H27.0149L26.7495 7.40993L26.4817 8.25403Z" fill="black"/>
<path d="M28.0696 7.18108C27.8405 7.18108 27.8318 7.23818 27.786 7.46728H27.6943C27.707 7.37928 27.722 7.29118 27.7315 7.19978C27.7441 7.11168 27.7496 7.02368 27.7496 6.93228H27.8223C27.8468 7.02688 27.9234 7.02278 28.0056 7.02278H29.5792C29.6613 7.02278 29.7372 7.02038 29.7435 6.92578L29.817 6.93878C29.8051 7.02278 29.7933 7.10848 29.7838 7.19328C29.7767 7.27808 29.7767 7.36288 29.7767 7.44778L29.6858 7.48278C29.6803 7.36618 29.6645 7.17938 29.4607 7.17938H28.9606V8.85468C28.9606 9.09768 29.0673 9.12458 29.2134 9.12458H29.2711V9.21918C29.1526 9.21918 28.9393 9.20698 28.775 9.20698C28.5917 9.20698 28.3776 9.21918 28.2591 9.21918V9.12458H28.3176C28.4859 9.12458 28.5712 9.10988 28.5712 8.86118V7.17938H28.0696V7.18108Z" fill="black"/>
<path d="M29.2703 9.23487C29.151 9.23487 28.9377 9.22267 28.7742 9.22267C28.5917 9.22267 28.3784 9.23487 28.2584 9.23487H28.2457V9.22187V9.11417H28.2584H28.3168C28.4851 9.11007 28.5522 9.10767 28.5562 8.86377V7.19507H28.0703V7.18207V7.16897H28.583V8.86377C28.583 9.11587 28.4851 9.14027 28.3168 9.14197H28.2718V9.20877C28.3927 9.20717 28.5973 9.19577 28.7742 9.19577C28.933 9.19577 29.1376 9.20717 29.2577 9.20877L29.2569 9.14197H29.2118C29.0649 9.14107 28.9464 9.10527 28.9464 8.85727V7.16897H29.4599C29.6653 7.16977 29.6914 7.34847 29.6977 7.46587L29.764 7.44057C29.764 7.35907 29.764 7.27667 29.7704 7.19347C29.779 7.11277 29.7909 7.03197 29.8012 6.95207L29.7553 6.94307C29.7411 7.03447 29.655 7.03927 29.5784 7.03847H28.0048C27.9985 7.03847 27.9937 7.03847 27.989 7.03847C27.9171 7.03927 27.8397 7.03447 27.812 6.94637H27.7623C27.7615 7.03447 27.7559 7.11847 27.7433 7.20247C27.7346 7.28967 27.7196 7.37207 27.7085 7.45447H27.7741C27.8144 7.23587 27.8405 7.16327 28.0688 7.16817V7.18127V7.19427C27.842 7.19837 27.8476 7.23747 27.7978 7.47077L27.7954 7.48137H27.7852H27.6777L27.6801 7.46507C27.6927 7.37697 27.7078 7.28887 27.7172 7.19837C27.7299 7.10947 27.7354 7.02217 27.7354 6.93247V6.91857H27.7488H27.8318L27.8341 6.92837C27.8555 7.00747 27.9116 7.00837 27.989 7.00997C27.9945 7.00997 27.9992 7.00997 28.0048 7.00997H29.5784C29.6629 7.00837 29.7245 7.00667 29.7293 6.92427L29.7301 6.90967L29.7443 6.91207L29.8312 6.92597L29.8288 6.93897C29.8162 7.02387 29.8043 7.10867 29.7956 7.19267C29.7901 7.27667 29.7901 7.36227 29.7901 7.44707V7.45687L29.7806 7.46097L29.6724 7.50177V7.48297C29.6645 7.36477 29.6519 7.19347 29.4591 7.19347H28.9725V8.85487C28.9756 9.09217 29.0665 9.10927 29.2118 9.11257H29.2829V9.12557V9.23407L29.2703 9.23487Z" fill="black"/>
<path d="M29.9287 9.12645H29.9714C30.082 9.12645 30.1973 9.11175 30.1973 8.94695V7.29785C30.1973 7.13395 30.082 7.11845 29.9714 7.11845H29.9287V7.02295C30.048 7.02295 30.2305 7.03605 30.3798 7.03605C30.5322 7.03605 30.7155 7.02295 30.8593 7.02295V7.11845H30.8166C30.706 7.11845 30.5899 7.13315 30.5899 7.29785V8.94695C30.5899 9.11095 30.706 9.12645 30.8166 9.12645H30.8593V9.22105C30.7124 9.22105 30.5299 9.20875 30.3774 9.20875C30.2273 9.20875 30.048 9.22105 29.9287 9.22105V9.12645Z" fill="black"/>
<path d="M30.8582 9.23494C30.7113 9.23494 30.528 9.22184 30.3763 9.22184C30.227 9.22184 30.0469 9.23494 29.9276 9.23494H29.915V9.22184V9.12724V9.11424H29.9276H29.9703C30.0809 9.11174 30.1812 9.10194 30.182 8.94784V7.29864C30.1812 7.14534 30.0809 7.13474 29.9703 7.13234H29.915V7.11924V7.01074H29.9276C30.0469 7.01074 30.2294 7.02304 30.3787 7.02304C30.5312 7.02304 30.7136 7.01074 30.8582 7.01074H30.8701V7.02384V7.13234H30.8582H30.8155C30.7042 7.13474 30.6038 7.14534 30.6023 7.29864V8.94784C30.603 9.10194 30.7042 9.11174 30.8155 9.11424H30.8701V9.12724V9.23574L30.8582 9.23494ZM30.8448 9.20714V9.14034H30.8163C30.7073 9.14034 30.577 9.12074 30.577 8.94704V7.29784C30.577 7.12414 30.7065 7.10454 30.8163 7.10454H30.8448V7.03774C30.7042 7.03854 30.528 7.04994 30.3795 7.04994C30.2349 7.04994 30.0595 7.03854 29.9418 7.03774V7.10454H29.9711C30.0793 7.10454 30.2096 7.12414 30.2096 7.29784V8.94704C30.2096 9.12074 30.0793 9.14034 29.9711 9.14034H29.9418V9.20714C30.0595 9.20554 30.2318 9.19494 30.3771 9.19494C30.524 9.19494 30.701 9.20634 30.8448 9.20714Z" fill="black"/>
<path d="M32.0723 6.97656C32.7224 6.97656 33.2407 7.39246 33.2407 8.06286C33.2407 8.78716 32.7375 9.26836 32.0881 9.26836C31.4411 9.26836 30.9482 8.81566 30.9482 8.13796C30.9482 7.48386 31.4388 6.97656 32.0723 6.97656ZM32.1181 9.12966C32.7106 9.12966 32.8125 8.59136 32.8125 8.13226C32.8125 7.67226 32.5724 7.11516 32.066 7.11516C31.5328 7.11516 31.374 7.60616 31.374 8.02696C31.3748 8.59136 31.6244 9.12966 32.1181 9.12966Z" fill="black"/>
<path d="M30.9355 8.13819C30.937 7.47589 31.4331 6.96369 32.0738 6.96289V6.97679V6.99059C31.4466 6.99059 30.9615 7.49059 30.9615 8.13819C30.9623 8.80779 31.4489 9.25389 32.0896 9.25469C32.7326 9.25389 33.2279 8.77999 33.2295 8.06229C33.2287 7.39999 32.7184 6.99059 32.0738 6.99059V6.97679V6.96289C32.7287 6.96369 33.2532 7.38369 33.2548 8.06229C33.254 8.79389 32.7453 9.28079 32.0896 9.28239C31.4379 9.28079 30.937 8.82239 30.9355 8.13819ZM31.3628 8.02809C31.3636 7.60479 31.5248 7.10149 32.0683 7.10149C32.5865 7.10239 32.8274 7.66999 32.8282 8.13329C32.8274 8.59159 32.7231 9.14379 32.1196 9.14379V9.13069V9.11769C32.7002 9.11689 32.7998 8.59249 32.8014 8.13409C32.8014 7.67739 32.5628 7.13089 32.0675 7.13009C31.5445 7.13089 31.3897 7.60969 31.3889 8.02889C31.3897 8.58999 31.6369 9.11609 32.1196 9.11769V9.13069V9.14379C31.614 9.14219 31.3636 8.59489 31.3628 8.02809Z" fill="black"/>
<path d="M35.2968 8.60133L35.3031 8.59483V7.41463C35.3031 7.15693 35.1293 7.11943 35.0369 7.11943H34.9713V7.02393C35.1135 7.02393 35.2541 7.03703 35.3971 7.03703C35.5227 7.03703 35.6476 7.02393 35.7724 7.02393V7.11943H35.7265C35.5986 7.11943 35.4548 7.14383 35.4548 7.51823V8.95123C35.4548 9.06133 35.4587 9.17143 35.473 9.26843H35.3568L33.7872 7.46193V8.75873C33.7872 9.03363 33.8385 9.12653 34.0739 9.12653H34.1253V9.22113C33.9942 9.22113 33.863 9.20893 33.7319 9.20893C33.5944 9.20893 33.4538 9.22113 33.3164 9.22113V9.12653H33.3598C33.5707 9.12653 33.6339 8.97973 33.6339 8.72773V7.40243C33.6339 7.22623 33.4941 7.11943 33.3567 7.11943H33.3172V7.02393C33.4333 7.02393 33.5518 7.03703 33.6679 7.03703C33.7587 7.03703 33.8472 7.02393 33.9389 7.02393L35.2968 8.60133Z" fill="black"/>
<path d="M35.4751 9.28224L35.3487 9.27734L33.8019 7.49684V8.75774C33.8059 9.03264 33.8462 9.10934 34.0753 9.11174H34.1416V9.12644V9.23414H34.1282C33.9963 9.23414 33.8651 9.22184 33.7348 9.22184C33.5981 9.22184 33.4583 9.23414 33.3193 9.23414H33.3066V9.22104V9.11254H33.3193H33.3627C33.5642 9.11174 33.6218 8.97884 33.6234 8.72764V7.40224C33.6234 7.23424 33.4907 7.13314 33.3596 7.13234H33.3074V7.11924V7.01074H33.3201C33.437 7.01074 33.5563 7.02304 33.6708 7.02304C33.7609 7.02304 33.8486 7.01074 33.9528 7.01564L35.2918 8.57264V7.41534C35.291 7.16494 35.1291 7.13474 35.039 7.13234H34.9592V7.11924V7.01074H34.9727C35.1164 7.01074 35.2571 7.02304 35.3985 7.02304C35.5241 7.02304 35.6481 7.01074 35.7745 7.01074H35.7871V7.02384V7.13234H35.7745H35.7287C35.6031 7.13634 35.4735 7.14784 35.4704 7.51894V8.95194C35.4704 9.06114 35.4727 9.17134 35.4869 9.26754L35.4893 9.28384H35.4751V9.28224ZM35.359 9.25444H35.4601C35.4467 9.15984 35.4443 9.05464 35.4443 8.95104V7.51804C35.4443 7.13964 35.5983 7.10544 35.7287 7.10544H35.7618V7.03854C35.641 7.03934 35.5201 7.05074 35.3985 7.05074C35.261 7.05074 35.1244 7.03934 34.9861 7.03854V7.10544H35.039C35.1338 7.10624 35.3179 7.14864 35.3179 7.41534L35.3139 8.60524L35.3084 8.61094L35.2989 8.62154L33.941 7.03854C33.8509 7.03854 33.7625 7.05074 33.67 7.05074C33.5578 7.05074 33.4425 7.03934 33.3319 7.03854V7.10544H33.358C33.5018 7.10624 33.6487 7.21714 33.6487 7.40224V8.72764C33.6487 8.97964 33.5808 9.14034 33.3611 9.14114H33.3311V9.20804C33.4638 9.20714 33.5989 9.19574 33.7332 9.19574C33.8604 9.19574 33.9876 9.20714 34.1132 9.20804V9.14114H34.0737C33.8343 9.14114 33.7743 9.03344 33.7743 8.75864V7.42674L35.359 9.25444Z" fill="black"/>
<path d="M36.2623 8.7711C36.2331 8.8779 36.196 8.9603 36.196 9.0166C36.196 9.1112 36.3247 9.1267 36.4243 9.1267H36.4582V9.2213C36.3358 9.2148 36.2118 9.2091 36.0893 9.2091C35.9787 9.2091 35.8689 9.2148 35.7607 9.2213V9.1267H35.7773C35.8966 9.1267 35.9985 9.0541 36.0427 8.922L36.5317 7.4776C36.5712 7.3609 36.6257 7.2035 36.6439 7.0869C36.741 7.0526 36.8635 6.9898 36.9211 6.9515C36.9306 6.9482 36.9369 6.9458 36.9456 6.9458C36.9543 6.9458 36.9599 6.9458 36.967 6.9548C36.9764 6.9801 36.9851 7.0086 36.9946 7.0339L37.5555 8.6806C37.591 8.7907 37.629 8.9073 37.6685 9.0019C37.7048 9.09 37.7696 9.1267 37.8699 9.1267H37.8881V9.2213C37.7514 9.2148 37.6132 9.2091 37.4678 9.2091C37.3185 9.2091 37.1652 9.2148 37.0104 9.2213V9.1267H37.0444C37.1139 9.1267 37.234 9.1153 37.234 9.0362C37.234 8.9946 37.2063 8.9098 37.1724 8.8094L37.0539 8.4441H36.3626L36.2623 8.7711ZM36.7071 7.3764H36.7007L36.4171 8.2679H36.9883L36.7071 7.3764Z" fill="black"/>
<path d="M37.888 9.23497C37.7506 9.22927 37.6131 9.22277 37.4685 9.22277C37.32 9.22277 37.1668 9.23007 37.0112 9.23497L36.9977 9.23577V9.22117V9.11347H37.0104H37.0435C37.1146 9.11347 37.2197 9.09637 37.2205 9.03597C37.2213 9.00007 37.1936 8.91447 37.1589 8.81417L37.0435 8.45777H36.3705L36.2765 8.77497C36.2465 8.88347 36.2093 8.96587 36.2101 9.01637C36.2101 9.09387 36.3239 9.11347 36.425 9.11347H36.4716V9.12647V9.23577L36.4582 9.23497C36.3365 9.22927 36.2117 9.22277 36.0901 9.22277C35.9803 9.22277 35.8712 9.23007 35.7614 9.23497L35.748 9.23577V9.22117V9.11347H35.7614H35.778C35.8918 9.11267 35.9874 9.04497 36.0316 8.91777L36.5198 7.47327C36.5585 7.35667 36.6138 7.20007 36.6407 7.07447C36.737 7.04027 36.8595 6.97657 36.9179 6.93907C36.9258 6.93587 36.9353 6.93177 36.9472 6.93177C36.9551 6.93097 36.9709 6.93337 36.9803 6.95047C36.989 6.97497 36.9977 7.00347 37.008 7.02877L37.5689 8.67547C37.6052 8.78557 37.6423 8.90227 37.6818 8.99517C37.7174 9.07917 37.7727 9.11187 37.8706 9.11347H37.9014V9.12647V9.23577L37.888 9.23497ZM37.0238 9.20647C37.1739 9.20077 37.3232 9.19507 37.4678 9.19507C37.6092 9.19507 37.7419 9.20157 37.8746 9.20647V9.14117H37.8698C37.7664 9.14117 37.6945 9.09957 37.6566 9.00747C37.6163 8.91197 37.5799 8.79537 37.5436 8.68527L36.9835 7.03857C36.974 7.01327 36.9645 6.98477 36.9566 6.96357C36.9543 6.95947 36.9543 6.95947 36.9519 6.95947C36.9511 6.95947 36.9487 6.95947 36.9464 6.95947C36.9401 6.95947 36.9369 6.96197 36.9282 6.96357C36.869 7.00187 36.7473 7.06547 36.6565 7.08997C36.6383 7.20987 36.583 7.36647 36.5443 7.48227L36.0561 8.92747C36.0095 9.06457 35.9036 9.14117 35.778 9.14117H35.7733V9.20647C35.8783 9.20157 35.9834 9.19507 36.0901 9.19507C36.2078 9.19507 36.3278 9.20157 36.4463 9.20647V9.14117H36.425C36.3263 9.14037 36.1872 9.12897 36.1833 9.01637C36.1841 8.95447 36.222 8.87367 36.252 8.76767L36.3523 8.43167H37.0633L37.1849 8.80517C37.2189 8.90627 37.2466 8.99027 37.2466 9.03597C37.2418 9.13227 37.1146 9.13957 37.0443 9.14117H37.0246L37.0238 9.20647ZM36.4005 8.27997L36.6944 7.36237H36.7031H36.7094H36.7197L37.008 8.27997H36.4005ZM36.4376 8.25297H36.9717L36.7062 7.41047L36.4376 8.25297Z" fill="black"/>
<path d="M38.6552 8.91283C38.6552 9.03933 38.7397 9.07683 38.8377 9.08903C38.9633 9.09883 39.0999 9.09883 39.2406 9.08253C39.3677 9.06783 39.4783 8.99113 39.5328 8.91283C39.581 8.84273 39.6087 8.75543 39.6276 8.68613H39.7161C39.6822 8.86553 39.6395 9.04253 39.6032 9.22113C39.3354 9.22113 39.0668 9.20893 38.799 9.20893C38.5304 9.20893 38.2618 9.22113 37.9932 9.22113V9.12653H38.0351C38.1457 9.12653 38.2642 9.11183 38.2642 8.91613V7.29883C38.2642 7.13483 38.1457 7.11943 38.0351 7.11943H37.9932V7.02393C38.1552 7.02393 38.3139 7.03703 38.4751 7.03703C38.6307 7.03703 38.7832 7.02393 38.9388 7.02393V7.11943H38.8622C38.7468 7.11943 38.656 7.12263 38.656 7.28903L38.6552 8.91283Z" fill="black"/>
<path d="M39.6039 9.23494C39.3353 9.23494 39.0675 9.22264 38.7997 9.22264C38.5311 9.22264 38.2625 9.23494 37.9931 9.23494H37.9805V9.22184V9.11424H37.9931H38.0358C38.1464 9.11174 38.2514 9.10364 38.2522 8.91604V7.29784C38.2514 7.14534 38.1472 7.13394 38.0358 7.13234H37.9805V7.11924V7.01074H37.9931C38.1559 7.01074 38.3146 7.02304 38.475 7.02304C38.6298 7.02304 38.7823 7.01074 38.9387 7.01074H38.9506V7.02384V7.13234H38.9387H38.8621C38.7444 7.13554 38.6701 7.12984 38.6678 7.28974V8.91354C38.6693 9.03104 38.7436 9.06204 38.8392 9.07664C38.8921 9.08074 38.9498 9.08244 39.0074 9.08244C39.0817 9.08244 39.1591 9.07834 39.2389 9.07014C39.3629 9.05464 39.4688 8.98124 39.5217 8.90624C39.5691 8.83854 39.5952 8.75204 39.6133 8.68354L39.6165 8.67294H39.6268H39.731L39.7279 8.69014C39.6939 8.86954 39.652 9.04574 39.6149 9.22514L39.6118 9.23494H39.6039ZM39.5928 9.20714C39.6283 9.03674 39.6678 8.86954 39.7002 8.69904H39.6378C39.6197 8.76844 39.592 8.85244 39.5438 8.92094C39.4869 9.00324 39.374 9.07994 39.2413 9.09624C39.1615 9.10524 39.0825 9.10934 39.0074 9.10934C38.949 9.10934 38.8905 9.10684 38.836 9.10274C38.7373 9.09134 38.6409 9.04734 38.6417 8.91274V7.28894C38.6417 7.11354 38.7483 7.10454 38.8621 7.10454H38.9253V7.03774C38.7752 7.03854 38.6259 7.04994 38.475 7.04994C38.3162 7.04994 38.1622 7.03854 38.0066 7.03774V7.10454H38.0358C38.1448 7.10454 38.2783 7.12414 38.2783 7.29704V8.91524C38.2783 9.11914 38.1456 9.14034 38.0358 9.14034H38.0066V9.20714C38.2696 9.20634 38.5342 9.19494 38.7989 9.19494C39.0643 9.19494 39.3282 9.20634 39.5928 9.20714Z" fill="black"/>
<path d="M39.6781 6.93506C39.8622 6.93506 39.9988 7.08096 39.9988 7.26696C39.9988 7.45296 39.8614 7.59726 39.6781 7.59726C39.4948 7.59726 39.3574 7.45296 39.3574 7.26696C39.3574 7.08096 39.4948 6.93506 39.6781 6.93506ZM39.6781 7.53526C39.8219 7.53526 39.9325 7.40886 39.9325 7.26616C39.9325 7.12346 39.8242 6.99536 39.6781 6.99536C39.5335 6.99536 39.4237 7.12346 39.4237 7.26616C39.4237 7.40886 39.5327 7.53526 39.6781 7.53526ZM39.5185 7.44146V7.42516C39.5572 7.41946 39.5651 7.42116 39.5651 7.39586V7.15036C39.5651 7.11526 39.5612 7.10386 39.5193 7.10546V7.08836H39.6844C39.7405 7.08836 39.7926 7.11686 39.7926 7.17646C39.7926 7.22616 39.7618 7.26206 39.7168 7.27676L39.769 7.35256C39.7942 7.38606 39.8219 7.41946 39.84 7.43006V7.44066H39.7776C39.7476 7.44066 39.7216 7.37546 39.6623 7.28816H39.6268V7.39746C39.6268 7.42026 39.6339 7.41866 39.6734 7.42356V7.43986H39.5185V7.44146ZM39.6268 7.26696H39.6639C39.7058 7.26696 39.7247 7.23516 39.7247 7.18296C39.7247 7.12996 39.6947 7.11196 39.6615 7.11196H39.626L39.6268 7.26696Z" fill="black"/>
<path d="M5.37334 10.9999C2.42598 11.0146 0 8.5491 0 5.5477C0 2.2682 2.42598 -0.000819778 5.37334 2.2226e-07H6.755C9.6676 -0.000819778 12.3258 2.2674 12.3258 5.5477C12.3258 8.5474 9.6676 10.9999 6.755 10.9999H5.37334ZM5.38519 0.454291C2.69141 0.455101 0.50953 2.7086 0.50874 5.4898C0.50953 8.2701 2.69141 10.5236 5.38519 10.5244C8.079 10.5236 10.2616 8.271 10.2624 5.4898C10.2624 2.7094 8.079 0.455921 5.38519 0.454291ZM4.27845 8.4683V2.512C3.11957 2.9728 2.29722 4.131 2.29406 5.4906C2.29722 6.8494 3.11957 8.0075 4.27845 8.4683ZM8.4771 5.4906C8.4747 4.131 7.6516 2.9712 6.4919 2.512V8.47C7.6516 8.0091 8.4747 6.8502 8.4771 5.4906Z" fill="#006AAA"/>
</svg>
